<svg width="161" height="46" viewBox="0 0 161 46" fill="none" xmlns="http://www.w3.org/2000/svg">
<g clip-path="url(#clip0_1297_192831)">
<path d="M0 27.6097H5.22727C5.22727 29.1303 6.55785 30.556 8.93388 30.556C11.1198 30.556 12.593 29.463 12.593 28.0374C12.593 26.8018 11.6426 26.2316 9.97934 25.8514L7.03306 25.0911C1.90083 23.7605 0.617769 21.0518 0.617769 18.2481C0.617769 14.7316 4.08678 11.5952 8.93388 11.5952C12.9256 11.5952 17.3926 13.5911 17.345 18.5808H12.0702C12.0702 17.0601 10.6921 16.1097 9.12397 16.1097C7.41322 16.1097 6.22521 17.1076 6.22521 18.4857C6.22521 19.6262 7.31818 20.2915 8.60124 20.5766L12.2128 21.527C17.25 22.8101 18.1529 25.994 18.1529 28.0374C18.1529 32.5994 13.5909 35.0704 9.07645 35.0704C4.56198 35.1179 0.0950413 32.4093 0 27.6097Z" fill="#FEFEFE"/>
<path d="M20.3864 45.5249V35.1179H25.9463V45.4774H20.3864V45.5249Z" fill="#FEFEFE"/>
<path d="M29.4153 11.595H27.562V17.2024H29.4153C32.8368 17.2024 35.593 19.9586 35.593 23.3801C35.593 26.8016 32.8368 29.5578 29.4153 29.5578H27.562V35.1652H29.4153C35.9256 35.1652 41.1529 29.8904 41.1529 23.4276C41.1529 16.9648 35.9256 11.595 29.4153 11.595Z" fill="#26D9D9"/>
<path d="M20.3864 21.5267V15.9668H25.9463V21.5267H20.3864Z" fill="#26D9D9"/>
<path d="M20.3864 30.7933V25.2334H25.9463V30.7933H20.3864Z" fill="#26D9D9"/>
<path d="M61.4917 0H67.0517V34.5475H61.4917V31.6012C59.9711 33.9298 56.7872 35.1653 54.0785 35.1653C48.1859 35.1653 43.0537 30.5083 43.0537 23.3802C43.0537 16.2045 48.1384 11.6426 54.031 11.6426C56.8347 11.6426 59.9711 12.7831 61.4917 15.1591V0ZM61.3967 23.2851C61.3967 19.3409 58.1178 16.7748 54.9339 16.7748C51.4649 16.7748 48.6612 19.531 48.6612 23.2851C48.6612 27.0393 51.4649 29.938 54.9339 29.938C58.3078 29.938 61.3967 27.1818 61.3967 23.2851Z" fill="#FEFEFE"/>
<path d="M69.9028 4.27696C69.9028 2.32861 71.5661 0.855469 73.5619 0.855469C75.5578 0.855469 77.1735 2.28109 77.1735 4.27696C77.1735 6.17778 75.6053 7.69844 73.5619 7.69844C71.6136 7.65092 69.9028 6.17778 69.9028 4.27696ZM70.7582 34.5476V12.1654H76.3181V34.5476H70.7582Z" fill="#FEFEFE"/>
<path d="M97.1797 12.1653H102.74V31.6013C102.74 41.6756 97.845 46 90.1942 46C85.5847 46 81.5929 43.5289 79.5971 39.4897L84.2066 37.3988C85.2995 39.5372 87.7706 41.0104 90.1942 41.0104C94.5186 41.0104 97.1797 38.5868 97.1797 32.1715V31.6488C95.6115 33.9298 92.4752 35.1653 89.7665 35.1653C83.8739 35.1653 78.7417 30.5083 78.7417 23.3802C78.7417 16.2046 83.8264 11.6426 89.719 11.6426C92.5702 11.6426 95.6115 12.8306 97.1797 15.1591V12.1653V12.1653ZM97.0847 23.2851C97.0847 19.3409 93.8057 16.7748 90.6219 16.7748C87.1529 16.7748 84.3491 19.531 84.3491 23.2851C84.3491 27.0393 87.1529 29.938 90.6219 29.938C93.9958 29.938 97.0847 27.1818 97.0847 23.2851Z" fill="#FEFEFE"/>
<path d="M105.591 4.27696C105.591 2.32861 107.254 0.855469 109.25 0.855469C111.246 0.855469 112.862 2.28109 112.862 4.27696C112.862 6.17778 111.293 7.69844 109.25 7.69844C107.302 7.65092 105.591 6.17778 105.591 4.27696ZM106.494 34.5476V12.1654H112.054V34.5476H106.494Z" fill="#FEFEFE"/>
<path d="M128.068 12.1654V16.5848H123.316V34.5476H117.756V16.5848H113.717V12.1654H117.756V3.94434H123.316V12.1654H128.068Z" fill="#FEFEFE"/>
<path d="M146.079 12.1652H151.638V34.5474H146.079V31.0309C144.605 33.4545 141.612 35.1177 138.428 35.1177C132.44 35.1177 127.641 30.2706 127.641 23.3326C127.641 16.5846 132.25 11.595 138.57 11.595C141.612 11.595 144.605 12.9255 146.079 15.3016V12.1652ZM145.983 23.3326C145.983 19.4834 142.847 16.7747 139.521 16.7747C135.909 16.7747 133.2 19.721 133.2 23.3326C133.2 26.9441 135.909 29.9379 139.568 29.9379C143.037 29.9379 145.983 27.0392 145.983 23.3326Z" fill="#FEFEFE"/>
<path d="M155.393 34.5475V0H160.952V34.5475H155.393Z" fill="#FEFEFE"/>
</g>
<defs>
<clipPath id="clip0_1297_192831">
<rect width="160.952" height="46" fill="white"/>
</clipPath>
</defs>
</svg>
