<svg xmlns="http://www.w3.org/2000/svg" xmlns:xlink="http://www.w3.org/1999/xlink" width="1366" zoomAndPan="magnify" viewBox="0 0 1024.5 576" height="768" preserveAspectRatio="xMidYMid meet" version="1.0"><defs><clipPath id="ebc7e6b718"><path d="M 19.769531 176 L 143 176 L 143 336 L 19.769531 336 Z M 19.769531 176 " clip-rule="nonzero"/></clipPath><clipPath id="09f7e7c6a3"><path d="M 829 231 L 922 231 L 922 350.453125 L 829 350.453125 Z M 829 231 " clip-rule="nonzero"/></clipPath></defs><g clip-path="url(#ebc7e6b718)"><path fill="#fefefe" d="M 19.769531 284.894531 L 55.003906 284.894531 C 55.003906 295.152344 63.972656 304.769531 79.988281 304.769531 C 94.71875 304.769531 104.652344 297.398438 104.652344 287.777344 C 104.652344 279.441406 98.246094 275.597656 87.035156 273.03125 L 67.175781 267.902344 C 32.582031 258.925781 23.933594 240.648438 23.933594 221.734375 C 23.933594 198.007812 47.316406 176.847656 79.988281 176.847656 C 106.890625 176.847656 137 190.3125 136.679688 223.976562 L 101.125 223.976562 C 101.125 213.71875 91.835938 207.304688 81.269531 207.304688 C 69.738281 207.304688 61.730469 214.039062 61.730469 223.335938 C 61.730469 231.03125 69.097656 235.519531 77.746094 237.441406 L 102.085938 243.855469 C 136.039062 252.511719 142.125 273.992188 142.125 287.777344 C 142.125 318.558594 111.375 335.226562 80.949219 335.226562 C 50.519531 335.550781 20.410156 317.273438 19.769531 284.894531 Z M 19.769531 284.894531 " fill-opacity="1" fill-rule="nonzero"/></g><path fill="#fefefe" d="M 157.179688 405.761719 L 157.179688 335.550781 L 194.65625 335.550781 L 194.65625 405.441406 L 157.179688 405.441406 Z M 157.179688 405.761719 " fill-opacity="1" fill-rule="nonzero"/><path fill="#26d9d9" d="M 218.039062 176.847656 L 205.546875 176.847656 L 205.546875 214.679688 L 218.039062 214.679688 C 241.101562 214.679688 259.679688 233.273438 259.679688 256.359375 C 259.679688 279.441406 241.101562 298.035156 218.039062 298.035156 L 205.546875 298.035156 L 205.546875 335.867188 L 218.039062 335.867188 C 261.921875 335.867188 297.15625 300.28125 297.15625 256.679688 C 297.15625 213.074219 261.921875 176.847656 218.039062 176.847656 Z M 218.039062 176.847656 " fill-opacity="1" fill-rule="nonzero"/><path fill="#26d9d9" d="M 157.179688 206.34375 L 194.65625 206.34375 L 194.65625 243.851562 L 157.179688 243.851562 Z M 157.179688 206.34375 " fill-opacity="1" fill-rule="nonzero"/><path fill="#26d9d9" d="M 157.179688 268.859375 L 194.65625 268.859375 L 194.65625 306.371094 L 157.179688 306.371094 Z M 157.179688 268.859375 " fill-opacity="1" fill-rule="nonzero"/><path fill="#000000" d="M 400.925781 204.433594 L 334.105469 204.433594 C 326.222656 204.433594 319.832031 210.777344 319.832031 218.601562 L 319.832031 309.71875 C 319.832031 310.589844 320.546875 311.296875 321.421875 311.296875 L 342.894531 311.296875 C 343.769531 311.296875 344.484375 310.589844 344.484375 309.71875 L 344.484375 274.65625 C 344.484375 273.273438 345.621094 272.144531 347.015625 272.144531 L 387.171875 272.144531 C 392.105469 272.144531 396.09375 268.183594 396.09375 263.289062 L 396.09375 252.664062 C 396.09375 251.796875 395.378906 251.085938 394.503906 251.085938 L 347.046875 251.085938 C 345.652344 251.085938 344.515625 249.960938 344.515625 248.574219 L 344.515625 228.257812 C 344.515625 226.808594 345.683594 225.652344 347.144531 225.652344 L 393.53125 225.652344 C 398.496094 225.652344 402.515625 221.660156 402.515625 216.734375 L 402.515625 206.011719 C 402.515625 205.140625 401.804688 204.433594 400.925781 204.433594 Z M 400.925781 204.433594 " fill-opacity="1" fill-rule="nonzero"/><path fill="#000000" d="M 447.414062 229.386719 C 433.917969 229.386719 422.886719 234.054688 416.304688 242.554688 C 415.167969 244.039062 414.355469 245.808594 414.453125 247.675781 C 414.582031 251.378906 417.144531 254.210938 420.519531 254.886719 L 432.101562 257.238281 C 432.847656 257.398438 433.625 256.980469 433.851562 256.304688 C 435.960938 249.832031 441.410156 246.933594 450.492188 247.546875 C 456.492188 247.933594 461.199219 252.988281 461.199219 259.074219 L 461.199219 262.96875 L 438.914062 262.96875 C 418.183594 262.96875 405.792969 272.402344 405.792969 288.179688 C 405.792969 303.699219 417.375 313.714844 435.28125 313.714844 C 444.71875 313.714844 452.734375 310.945312 459.121094 305.535156 L 461.164062 303.796875 L 461.164062 309.816406 C 461.164062 310.65625 461.84375 311.332031 462.691406 311.332031 C 466.0625 311.300781 473.75 311.300781 473.785156 311.300781 C 479.429688 311.300781 484 306.757812 484 301.15625 L 484 260.621094 C 484 241.074219 470.3125 229.386719 447.414062 229.386719 Z M 461.164062 280.195312 C 461.164062 290.46875 451.757812 296.617188 442.675781 296.617188 C 434.921875 296.617188 429.925781 292.816406 429.925781 286.894531 C 429.925781 281.066406 434.726562 277.167969 441.867188 277.167969 L 461.199219 277.167969 L 461.199219 280.195312 Z M 461.164062 280.195312 " fill-opacity="1" fill-rule="nonzero"/><path fill="#000000" d="M 650.960938 290.882812 C 650.570312 290.691406 650.117188 290.691406 649.699219 290.851562 C 646.484375 292.109375 642.882812 292.878906 640.0625 292.878906 C 631.917969 292.878906 627.800781 288.46875 627.800781 279.742188 L 627.800781 252.632812 C 627.800781 251.25 628.9375 250.121094 630.328125 250.121094 L 644.472656 250.121094 C 648.691406 250.121094 652.128906 246.707031 652.128906 242.523438 L 652.128906 233.410156 C 652.128906 232.542969 651.417969 231.832031 650.539062 231.832031 L 627.800781 231.832031 L 627.800781 206.011719 C 627.800781 205.140625 627.085938 204.433594 626.210938 204.433594 L 613.496094 204.433594 C 608.242188 204.433594 603.992188 208.652344 603.992188 213.867188 L 603.992188 231.832031 L 590.628906 231.832031 C 589.75 231.832031 589.035156 232.542969 589.035156 233.410156 L 589.035156 248.511719 C 589.035156 249.382812 589.75 250.089844 590.628906 250.089844 L 601.75 250.089844 C 602.988281 250.089844 604.023438 251.085938 604.023438 252.34375 L 604.023438 282.320312 C 604.023438 299.578125 618.101562 313.679688 635.488281 313.710938 C 642.6875 313.746094 648.65625 312.296875 655.535156 308.882812 C 656.21875 308.5625 656.542969 307.789062 656.3125 307.046875 L 651.804688 291.816406 C 651.640625 291.398438 651.351562 291.078125 650.960938 290.882812 Z M 650.960938 290.882812 " fill-opacity="1" fill-rule="nonzero"/><path fill="#000000" d="M 706.757812 229.742188 C 681.421875 229.742188 662.316406 247.738281 662.316406 271.566406 C 662.316406 295.523438 681.421875 313.550781 706.757812 313.550781 C 731.796875 313.550781 750.707031 295.488281 750.707031 271.566406 C 750.707031 247.707031 731.832031 229.742188 706.757812 229.742188 Z M 706.757812 294.007812 C 696.28125 294.007812 685.121094 286.152344 685.121094 271.566406 C 685.121094 257.527344 696.117188 249.125 706.757812 249.125 C 717.136719 249.125 727.875 257.527344 727.875 271.566406 C 727.875 285.605469 717.167969 294.007812 706.757812 294.007812 Z M 706.757812 294.007812 " fill-opacity="1" fill-rule="nonzero"/><path fill="#000000" d="M 823.5625 230.867188 C 822.886719 230.773438 821.621094 230.675781 820.355469 230.675781 C 808.675781 230.675781 799.496094 236.117188 792.976562 246.871094 L 790.675781 250.703125 C 790.675781 250.703125 790.675781 237.855469 790.675781 233.347656 C 790.675781 232.511719 789.992188 231.800781 789.117188 231.800781 L 781.136719 231.800781 C 773.253906 231.800781 766.863281 238.144531 766.863281 245.96875 L 766.863281 309.65625 C 766.863281 310.527344 767.578125 311.234375 768.453125 311.234375 L 789.117188 311.234375 C 789.992188 311.234375 790.707031 310.527344 790.707031 309.65625 L 790.707031 286.859375 C 790.707031 265.675781 800.695312 254.953125 820.386719 254.953125 L 822.429688 254.953125 C 823.273438 254.953125 823.953125 254.308594 823.988281 253.472656 C 824.183594 247.644531 824.929688 232.929688 824.929688 232.480469 C 824.898438 231.898438 824.539062 231.03125 823.5625 230.867188 Z M 823.5625 230.867188 " fill-opacity="1" fill-rule="nonzero"/><path fill="#000000" d="M 580.210938 283.640625 L 561.367188 279.585938 C 560.585938 279.421875 559.84375 279.875 559.550781 280.648438 C 556.40625 288.890625 549.914062 293.429688 541.253906 293.429688 C 528.894531 293.429688 520.269531 284.476562 520.269531 271.632812 C 520.269531 258.785156 528.894531 249.832031 541.253906 249.832031 C 550.011719 249.832031 556.40625 254.4375 559.195312 262.808594 C 559.421875 263.515625 560.261719 263.9375 561.074219 263.742188 L 580.179688 259.203125 C 580.601562 259.105469 580.992188 258.816406 581.21875 258.429688 C 581.414062 258.074219 581.480469 257.65625 581.351562 257.269531 C 576.03125 240.367188 560.261719 229.484375 541.222656 229.484375 C 516.246094 229.484375 497.433594 247.613281 497.433594 271.664062 C 497.433594 295.714844 516.246094 313.84375 541.222656 313.84375 C 560.390625 313.84375 576.515625 302.476562 581.382812 285.574219 C 581.480469 285.1875 581.449219 284.800781 581.21875 284.445312 C 581.058594 284.027344 580.667969 283.738281 580.210938 283.640625 Z M 580.210938 283.640625 " fill-opacity="1" fill-rule="nonzero"/><g clip-path="url(#09f7e7c6a3)"><path fill="#000000" d="M 845.949219 348.292969 L 862.71875 309.785156 L 829.925781 233.765625 C 829.5 232.769531 830.214844 231.640625 831.316406 231.640625 L 853.539062 231.640625 C 854.21875 231.640625 854.867188 232.058594 855.097656 232.703125 L 872.871094 276.332031 C 873.652344 278.230469 876.375 278.265625 877.1875 276.398438 L 896.195312 232.734375 C 896.488281 232.058594 897.132812 231.640625 897.882812 231.640625 L 919.84375 231.640625 C 920.75 231.640625 921.367188 232.542969 921.011719 233.378906 L 871.023438 349.550781 C 870.796875 350.097656 870.242188 350.453125 869.660156 350.453125 L 847.375 350.453125 C 846.242188 350.453125 845.492188 349.324219 845.949219 348.292969 Z M 845.949219 348.292969 " fill-opacity="1" fill-rule="nonzero"/></g></svg>